<svg width="18" height="24" viewBox="0 0 18 24" fill="none" xmlns="http://www.w3.org/2000/svg">
<path d="M8.99258 18.6665C8.08648 18.6665 7.22035 18.4932 6.3942 18.1465C5.60359 17.8087 4.89958 17.3309 4.28219 16.7132C3.6648 16.0954 3.18732 15.3909 2.84975 14.5998C2.5033 13.7732 2.33008 12.9065 2.33008 11.9998C2.33008 11.0932 2.5033 10.2265 2.84975 9.39984C3.18732 8.60873 3.6648 7.90428 4.28219 7.2865C4.89958 6.66873 5.60359 6.19095 6.3942 5.85317C7.22035 5.5065 8.08648 5.33317 8.99258 5.33317C9.89868 5.33317 10.7648 5.5065 11.591 5.85317C12.3816 6.19095 13.0856 6.66873 13.703 7.2865C14.3204 7.90428 14.7978 8.60873 15.1354 9.39984C15.4819 10.2265 15.6551 11.0932 15.6551 11.9998C15.6551 12.9065 15.4819 13.7732 15.1354 14.5998C14.7978 15.3909 14.3204 16.0954 13.703 16.7132C13.0856 17.3309 12.3816 17.8087 11.591 18.1465C10.7648 18.4932 9.89868 18.6665 8.99258 18.6665ZM8.99258 17.3332C9.96086 17.3332 10.8581 17.0887 11.6842 16.5998C12.4837 16.1287 13.1189 15.4932 13.5897 14.6932C14.0783 13.8665 14.3226 12.9687 14.3226 11.9998C14.3226 11.0309 14.0783 10.1332 13.5897 9.3065C13.1189 8.5065 12.4837 7.87095 11.6842 7.39984C10.8581 6.91095 9.96086 6.6665 8.99258 6.6665C8.02429 6.6665 7.12708 6.91095 6.30093 7.39984C5.50143 7.87095 4.86627 8.5065 4.39545 9.3065C3.90687 10.1332 3.66258 11.0309 3.66258 11.9998C3.66258 12.9687 3.90687 13.8665 4.39545 14.6932C4.86627 15.4932 5.50143 16.1287 6.30093 16.5998C7.12708 17.0887 8.02429 17.3332 8.99258 17.3332ZM9.65883 11.9998H12.3238V13.3332H8.32633V8.6665H9.65883V11.9998Z" fill="#28343D"/>
</svg>
