<svg width="23" height="24" viewBox="0 0 23 24" fill="none" xmlns="http://www.w3.org/2000/svg">
<path d="M11.5 24C9.936 24 8.441 23.688 7.015 23.064C5.65033 22.456 4.43517 21.596 3.3695 20.484C2.30383 19.372 1.47967 18.104 0.897 16.68C0.299 15.192 0 13.632 0 12C0 10.368 0.299 8.808 0.897 7.32C1.47967 5.896 2.30383 4.628 3.3695 3.516C4.43517 2.404 5.65033 1.544 7.015 0.935999C8.441 0.312 9.936 0 11.5 0C13.064 0 14.559 0.312 15.985 0.935999C17.3497 1.544 18.5648 2.404 19.6305 3.516C20.6962 4.628 21.5203 5.896 22.103 7.32C22.701 8.808 23 10.368 23 12C23 13.632 22.701 15.192 22.103 16.68C21.5203 18.104 20.6962 19.372 19.6305 20.484C18.5648 21.596 17.3497 22.456 15.985 23.064C14.559 23.688 13.064 24 11.5 24ZM11.5 21.6C13.1713 21.6 14.72 21.16 16.146 20.28C17.526 19.432 18.6223 18.288 19.435 16.848C20.2783 15.36 20.7 13.744 20.7 12C20.7 10.256 20.2783 8.64 19.435 7.152C18.6223 5.712 17.526 4.568 16.146 3.72C14.72 2.84 13.1713 2.4 11.5 2.4C9.82867 2.4 8.28 2.84 6.854 3.72C5.474 4.568 4.37767 5.712 3.565 7.152C2.72167 8.64 2.3 10.256 2.3 12C2.3 13.744 2.72167 15.36 3.565 16.848C4.37767 18.288 5.474 19.432 6.854 20.28C8.28 21.16 9.82867 21.6 11.5 21.6Z" fill="white"/>
</svg>
