<svg width="18" height="24" viewBox="0 0 18 24" fill="none" xmlns="http://www.w3.org/2000/svg">
<path d="M2.99633 6H14.9888C15.1754 6 15.3331 6.06444 15.4619 6.19333C15.5907 6.32222 15.6551 6.48 15.6551 6.66667V17.3333C15.6551 17.52 15.5907 17.6778 15.4619 17.8067C15.3331 17.9356 15.1754 18 14.9888 18H2.99633C2.80978 18 2.6521 17.9356 2.52329 17.8067C2.39448 17.6778 2.33008 17.52 2.33008 17.3333V6.66667C2.33008 6.48 2.39448 6.32222 2.52329 6.19333C2.6521 6.06444 2.80978 6 2.99633 6ZM14.3226 8.82667L9.04588 13.56L3.66258 8.81333V16.6667H14.3226V8.82667ZM4.00903 7.33333L9.03255 11.7733L13.9895 7.33333H4.00903Z" fill="#28343D"/>
</svg>
