<svg width="41" height="40" viewBox="0 0 41 40" fill="none" xmlns="http://www.w3.org/2000/svg">
<path d="M27.2312 16.4453H28.1727C28.4924 16.4453 28.7884 16.5253 29.0608 16.6853C29.3331 16.8452 29.5492 17.0615 29.7091 17.334C29.869 17.6065 29.9489 17.9027 29.9489 18.2227V21.7773C29.9489 22.0973 29.869 22.3935 29.7091 22.666C29.5492 22.9385 29.3331 23.1548 29.0608 23.3147C28.7884 23.4747 28.4924 23.5547 28.1727 23.5547H27.2312C27.0891 24.7159 26.6865 25.7704 26.0234 26.7184C25.3603 27.6663 24.5254 28.4068 23.5189 28.94C22.4768 29.4969 21.3637 29.7754 20.1795 29.7754V27.998C21.1387 27.998 22.0328 27.7551 22.8617 27.2693C23.6669 26.7954 24.3064 26.1555 24.78 25.3498C25.2655 24.5204 25.5083 23.6258 25.5083 22.666V17.334C25.5083 16.3742 25.2655 15.4796 24.78 14.6502C24.3064 13.8445 23.6669 13.2046 22.8617 12.7307C22.0328 12.2449 21.1387 12.002 20.1795 12.002C19.2204 12.002 18.3263 12.2449 17.4974 12.7307C16.6922 13.2046 16.0527 13.8445 15.579 14.6502C15.0935 15.4796 14.8508 16.3742 14.8508 17.334V23.5547H12.1864C11.8667 23.5547 11.5706 23.4747 11.2983 23.3147C11.0259 23.1548 10.8098 22.9385 10.6499 22.666C10.4901 22.3935 10.4102 22.0973 10.4102 21.7773V18.2227C10.4102 17.9027 10.4901 17.6065 10.6499 17.334C10.8098 17.0615 11.0259 16.8452 11.2983 16.6853C11.5706 16.5253 11.8667 16.4453 12.1864 16.4453H13.1278C13.2699 15.2841 13.6725 14.2296 14.3357 13.2816C14.9988 12.3337 15.8336 11.5932 16.8402 11.06C17.8822 10.5031 18.9954 10.2246 20.1795 10.2246C21.3637 10.2246 22.4768 10.5031 23.5189 11.06C24.5254 11.5932 25.3603 12.3337 26.0234 13.2816C26.6865 14.2296 27.0891 15.2841 27.2312 16.4453ZM12.1864 18.2227V21.7773H13.0745V18.2227H12.1864ZM27.2845 18.2227V21.7773H28.1727V18.2227H27.2845ZM16.4139 23.3592L17.3553 21.8484C18.2197 22.3935 19.1611 22.666 20.1795 22.666C21.1979 22.666 22.1393 22.3935 23.0038 21.8484L23.9452 23.3592C23.3886 23.7146 22.7906 23.9842 22.1512 24.1679C21.5117 24.3515 20.8545 24.4434 20.1795 24.4434C19.5046 24.4434 18.8473 24.3515 18.2079 24.1679C17.5684 23.9842 16.9704 23.7146 16.4139 23.3592Z" fill="#28343D"/>
</svg>
