<svg width="18" height="24" viewBox="0 0 18 24" fill="none" xmlns="http://www.w3.org/2000/svg">
<path d="M10.1647 12.9998H11.8304L12.4966 10.3332H10.1647V8.99984C10.1647 8.69762 10.1781 8.47984 10.2047 8.3465C10.258 8.13317 10.3735 7.96873 10.5512 7.85317C10.7644 7.72873 11.0797 7.6665 11.4972 7.6665H12.4966V5.4265C12.3456 5.40873 12.1057 5.39095 11.7771 5.37317C11.3684 5.3465 10.9731 5.33317 10.5911 5.33317C9.97818 5.33317 9.43851 5.45539 8.97214 5.69984C8.50576 5.94428 8.14821 6.29317 7.89948 6.7465C7.63298 7.23539 7.49973 7.80873 7.49973 8.4665V10.3332H5.50098V12.9998H7.49973V18.6665H10.1647V12.9998Z" fill="#404D54"/>
</svg>
