<svg width="40" height="40" viewBox="0 0 40 40" fill="none" xmlns="http://www.w3.org/2000/svg">
<path d="M0 20C0 8.95431 8.95431 0 20 0C31.0457 0 40 8.95431 40 20C40 31.0457 31.0457 40 20 40C8.95431 40 0 31.0457 0 20Z" fill="#F3F4F6"/>
<path d="M21.1647 20.9998H22.8304L23.4966 18.3332H21.1647V16.9998C21.1647 16.6976 21.1781 16.4798 21.2047 16.3465C21.258 16.1332 21.3735 15.9687 21.5512 15.8532C21.7644 15.7287 22.0797 15.6665 22.4972 15.6665H23.4966V13.4265C23.3456 13.4087 23.1057 13.3909 22.7771 13.3732C22.3684 13.3465 21.9731 13.3332 21.5911 13.3332C20.9782 13.3332 20.4385 13.4554 19.9721 13.6998C19.5058 13.9443 19.1482 14.2932 18.8995 14.7465C18.633 15.2354 18.4997 15.8087 18.4997 16.4665V18.3332H16.501V20.9998H18.4997V26.6665H21.1647V20.9998Z" fill="#404D54"/>
</svg>
