<svg width="41" height="40" viewBox="0 0 41 40" fill="none" xmlns="http://www.w3.org/2000/svg">
<path d="M18.7524 24.8877H19.6583V20.4443H21.4345V24.8877H22.3404C22.3996 24.3782 22.5654 23.8805 22.8378 23.3947C23.0746 22.9563 23.4239 22.4824 23.8858 21.9729L24.1344 21.7062C24.4778 21.3508 24.6673 21.1553 24.7028 21.1197C25.0818 20.6458 25.3719 20.1244 25.5732 19.5557C25.7745 18.9869 25.8752 18.3945 25.8752 17.7783C25.8752 16.8186 25.6324 15.924 25.1469 15.0945C24.6732 14.2888 24.0338 13.649 23.2285 13.175C22.3996 12.6892 21.5056 12.4463 20.5464 12.4463C19.5872 12.4463 18.6932 12.6892 17.8643 13.175C17.059 13.649 16.4196 14.2888 15.9459 15.0945C15.4604 15.924 15.2177 16.8186 15.2177 17.7783C15.2177 18.3945 15.3183 18.9869 15.5196 19.5557C15.7209 20.1244 16.011 20.6398 16.39 21.102C16.4255 21.1493 16.615 21.3508 16.9584 21.7062L17.2071 21.9729C17.6689 22.4824 18.0182 22.9563 18.255 23.3947C18.5274 23.8805 18.6932 24.3782 18.7524 24.8877ZM18.7702 26.665V27.5537H22.3227V26.665H18.7702ZM15.0045 22.2217C14.5072 21.6055 14.1223 20.9242 13.8499 20.1777C13.5776 19.4076 13.4414 18.6077 13.4414 17.7783C13.4414 16.4868 13.7671 15.29 14.4183 14.1881C15.046 13.1217 15.8926 12.2745 16.9584 11.6465C18.0597 10.9948 19.2557 10.6689 20.5464 10.6689C21.8371 10.6689 23.0332 10.9948 24.1344 11.6465C25.2002 12.2745 26.0469 13.1217 26.6745 14.1881C27.3258 15.29 27.6514 16.4868 27.6514 17.7783C27.6514 18.6077 27.5152 19.4076 27.2429 20.1777C26.9705 20.9242 26.5857 21.6055 26.0883 22.2217C26.0054 22.3283 25.8396 22.5061 25.591 22.7549C25.1291 23.2407 24.8035 23.6258 24.614 23.9102C24.2706 24.4078 24.0989 24.8818 24.0989 25.332V27.5537C24.0989 27.8736 24.019 28.1699 23.8591 28.4424C23.6993 28.7149 23.4831 28.9312 23.2108 29.0911C22.9384 29.2511 22.6424 29.3311 22.3227 29.3311H18.7702C18.4504 29.3311 18.1544 29.2511 17.882 29.0911C17.6097 28.9312 17.3936 28.7149 17.2337 28.4424C17.0738 28.1699 16.9939 27.8736 16.9939 27.5537V25.332C16.9939 24.8818 16.8222 24.4078 16.4788 23.9102C16.2893 23.6258 15.9637 23.2407 15.5019 22.7549C15.2532 22.5061 15.0874 22.3283 15.0045 22.2217Z" fill="#28343D"/>
</svg>
