<svg width="18" height="24" viewBox="0 0 18 24" fill="none" xmlns="http://www.w3.org/2000/svg">
<path d="M8.99258 9.99984C8.62836 9.99984 8.29302 10.0887 7.98654 10.2665C7.68007 10.4443 7.43799 10.6865 7.26033 10.9932C7.08266 11.2998 6.99383 11.6354 6.99383 11.9998C6.99383 12.3643 7.08266 12.6998 7.26033 13.0065C7.43799 13.3132 7.68007 13.5554 7.98654 13.7332C8.29302 13.9109 8.62836 13.9998 8.99258 13.9998C9.35679 13.9998 9.69214 13.9109 9.99862 13.7332C10.3051 13.5554 10.5472 13.3132 10.7248 13.0065C10.9025 12.6998 10.9913 12.3643 10.9913 11.9998C10.9913 11.6354 10.9025 11.2998 10.7248 10.9932C10.5472 10.6865 10.3051 10.4443 9.99862 10.2665C9.69214 10.0887 9.35679 9.99984 8.99258 9.99984ZM8.99258 8.6665C9.59664 8.6665 10.1541 8.81539 10.6649 9.11317C11.1757 9.41095 11.5798 9.81539 11.8774 10.3265C12.175 10.8376 12.3238 11.3954 12.3238 11.9998C12.3238 12.6043 12.175 13.1621 11.8774 13.6732C11.5798 14.1843 11.1757 14.5887 10.6649 14.8865C10.1541 15.1843 9.59664 15.3332 8.99258 15.3332C8.38851 15.3332 7.83108 15.1843 7.32029 14.8865C6.8095 14.5887 6.40531 14.1843 6.10772 13.6732C5.81012 13.1621 5.66133 12.6043 5.66133 11.9998C5.66133 11.3954 5.81012 10.8376 6.10772 10.3265C6.40531 9.81539 6.8095 9.41095 7.32029 9.11317C7.83108 8.81539 8.38851 8.6665 8.99258 8.6665ZM13.3232 8.49317C13.3232 8.72428 13.241 8.92206 13.0767 9.0865C12.9123 9.25095 12.7169 9.33317 12.4904 9.33317C12.2639 9.33317 12.0684 9.25095 11.9041 9.0865C11.7397 8.92206 11.6576 8.7265 11.6576 8.49984C11.6576 8.27317 11.7397 8.07762 11.9041 7.91317C12.0684 7.74873 12.2639 7.6665 12.4904 7.6665C12.7169 7.6665 12.9123 7.74873 13.0767 7.91317C13.241 8.07762 13.3232 8.27095 13.3232 8.49317ZM8.99258 6.6665C8.17531 6.6665 7.6201 6.66873 7.32695 6.67317C7.0338 6.67762 6.69624 6.68873 6.31425 6.7065C5.83455 6.72428 5.4348 6.79539 5.115 6.91984C4.83962 7.0265 4.59755 7.18428 4.38879 7.39317C4.18003 7.60206 4.02235 7.84428 3.91575 8.11984C3.79139 8.43984 3.72032 8.83984 3.70255 9.31984C3.68479 9.68428 3.67368 10.0109 3.66924 10.2998C3.6648 10.5887 3.66258 11.1554 3.66258 11.9998C3.66258 12.8176 3.6648 13.3732 3.66924 13.6665C3.67368 13.9598 3.68479 14.2976 3.70255 14.6798C3.72032 15.1598 3.79139 15.5598 3.91575 15.8798C4.02235 16.1554 4.18003 16.3976 4.38879 16.6065C4.59755 16.8154 4.83962 16.9687 5.115 17.0665C5.4348 17.1998 5.83455 17.2754 6.31425 17.2932C6.67847 17.3109 7.00493 17.3221 7.29364 17.3265C7.58235 17.3309 8.14866 17.3332 8.99258 17.3332C9.80984 17.3332 10.3651 17.3309 10.6582 17.3265C10.9514 17.3221 11.2889 17.3109 11.6709 17.2932C12.1506 17.2754 12.5504 17.2043 12.8702 17.0798C13.1455 16.9732 13.3876 16.8154 13.5964 16.6065C13.8051 16.3976 13.9584 16.1554 14.0561 15.8798C14.1893 15.5598 14.2648 15.1598 14.2826 14.6798C14.3004 14.3154 14.3115 13.9887 14.3159 13.6998C14.3204 13.4109 14.3226 12.8443 14.3226 11.9998C14.3226 11.1821 14.3204 10.6265 14.3159 10.3332C14.3115 10.0398 14.3004 9.70206 14.2826 9.31984C14.2648 8.83984 14.1938 8.43984 14.0694 8.11984C13.9628 7.84428 13.8051 7.60206 13.5964 7.39317C13.3876 7.18428 13.1455 7.0265 12.8702 6.91984C12.5504 6.79539 12.1506 6.72428 11.6709 6.7065C11.3067 6.68873 10.9802 6.67762 10.6915 6.67317C10.4028 6.66873 9.83649 6.6665 8.99258 6.6665ZM8.99258 5.33317C9.86314 5.33317 10.4583 5.33762 10.7781 5.3465C11.0446 5.3465 11.3644 5.35539 11.7375 5.37317C12.3594 5.39984 12.8968 5.50206 13.3499 5.67984C13.8029 5.85762 14.1982 6.11539 14.5358 6.45317C14.8733 6.79095 15.131 7.1865 15.3086 7.63984C15.4863 8.09317 15.5885 8.63095 15.6151 9.25317C15.6329 9.63539 15.6418 9.95539 15.6418 10.2132C15.6506 10.5509 15.6551 11.1509 15.6551 12.0132C15.6551 12.8754 15.6506 13.4665 15.6418 13.7865C15.6418 14.0532 15.6329 14.3732 15.6151 14.7465C15.5885 15.3687 15.4863 15.9065 15.3086 16.3598C15.131 16.8132 14.8733 17.2087 14.5358 17.5465C14.1982 17.8843 13.8029 18.1421 13.3499 18.3198C12.8968 18.4976 12.3594 18.5998 11.7375 18.6265C11.3555 18.6443 11.0357 18.6532 10.7781 18.6532C10.4406 18.6621 9.84094 18.6665 8.97925 18.6665C8.11757 18.6665 7.52683 18.6621 7.20703 18.6532C6.94053 18.6532 6.62073 18.6443 6.24763 18.6265C5.62579 18.5998 5.08835 18.4976 4.6353 18.3198C4.18225 18.1421 3.78694 17.8843 3.44938 17.5465C3.11181 17.2087 2.85419 16.8132 2.67653 16.3598C2.49886 15.9065 2.3967 15.3687 2.37005 14.7465C2.35229 14.3643 2.3434 14.0443 2.3434 13.7865C2.33452 13.4487 2.33008 12.8487 2.33008 11.9865C2.33008 11.1243 2.33452 10.5332 2.3434 10.2132C2.3434 9.9465 2.35229 9.6265 2.37005 9.25317C2.3967 8.63095 2.49886 8.09317 2.67653 7.63984C2.85419 7.1865 3.11181 6.79095 3.44938 6.45317C3.78694 6.11539 4.18225 5.85762 4.6353 5.67984C5.08835 5.50206 5.62579 5.39984 6.24763 5.37317C6.62961 5.35539 6.94941 5.3465 7.20703 5.3465C7.54459 5.33762 8.13978 5.33317 8.99258 5.33317Z" fill="#404D54"/>
</svg>
