<svg width="18" height="24" viewBox="0 0 18 24" fill="none" xmlns="http://www.w3.org/2000/svg">
<path d="M5.31483 7.33333C5.30594 7.60889 5.22599 7.85778 5.07498 8.08C4.92396 8.30222 4.72408 8.46444 4.47535 8.56667C4.22662 8.66889 3.969 8.69333 3.7025 8.64C3.436 8.58667 3.20725 8.46222 3.01626 8.26667C2.82527 8.07111 2.70757 7.84 2.66315 7.57333C2.61873 7.30667 2.64983 7.04889 2.75643 6.8C2.86303 6.55111 3.03181 6.35333 3.26278 6.20667C3.49374 6.06 3.74692 5.99111 4.0223 6C4.37763 6.00889 4.68189 6.14222 4.93506 6.4C5.18824 6.65778 5.31483 6.96889 5.31483 7.33333ZM5.3548 9.65333H2.6898V18H5.3548V9.65333ZM9.5655 9.65333H6.91383V18H9.53885V13.6267C9.53885 13.1556 9.64545 12.7556 9.85865 12.4267C10.063 12.1244 10.325 11.9156 10.6448 11.8C10.9646 11.6844 11.2844 11.6756 11.6042 11.7733C11.924 11.8711 12.1816 12.0667 12.3771 12.36C12.5992 12.6978 12.7102 13.12 12.7102 13.6267V18H15.3485V12.72C15.3485 11.9378 15.1798 11.2756 14.8422 10.7333C14.549 10.2622 14.1404 9.90667 13.6163 9.66667C13.1366 9.46222 12.6169 9.37333 12.0573 9.4C11.5154 9.42667 11.0135 9.56222 10.5515 9.80667C10.0896 10.0511 9.75205 10.3733 9.53885 10.7733L9.5655 9.65333Z" fill="#404D54"/>
</svg>
