<svg width="18" height="24" viewBox="0 0 18 24" fill="none" xmlns="http://www.w3.org/2000/svg">
<path d="M8.99234 17.3602L12.2836 14.0536C12.8877 13.458 13.2963 12.7558 13.5095 11.9469C13.7138 11.1558 13.7138 10.3647 13.5095 9.57357C13.2963 8.76468 12.8899 8.06023 12.2903 7.46023C11.6907 6.86023 10.9867 6.45357 10.1783 6.24023C9.38765 6.03579 8.59704 6.03579 7.80642 6.24023C6.99804 6.45357 6.29403 6.86023 5.69441 7.46023C5.09478 8.06023 4.68837 8.76468 4.47517 9.57357C4.27085 10.3647 4.27085 11.1558 4.47517 11.9469C4.68837 12.7558 5.097 13.458 5.70107 14.0536L8.99234 17.3602ZM8.99234 19.2402L4.75499 15.0002C3.98214 14.2358 3.46247 13.3291 3.19597 12.2802C2.92947 11.2669 2.92947 10.2536 3.19597 9.24023C3.46247 8.19135 3.97992 7.28246 4.74833 6.51357C5.51674 5.74468 6.42506 5.22246 7.47329 4.9469C8.48599 4.68912 9.49869 4.68912 10.5114 4.9469C11.5596 5.22246 12.4679 5.74468 13.2364 6.51357C14.0048 7.28246 14.5222 8.19135 14.7887 9.24023C15.0552 10.2536 15.0552 11.2669 14.7887 12.2802C14.5222 13.3291 14.0025 14.2358 13.2297 15.0002L8.99234 19.2402ZM8.99234 12.0936C9.23219 12.0936 9.45428 12.0336 9.65859 11.9136C9.86291 11.7936 10.025 11.6313 10.145 11.4269C10.2649 11.2225 10.3248 11.0002 10.3248 10.7602C10.3248 10.5202 10.2649 10.298 10.145 10.0936C10.025 9.88912 9.86291 9.7269 9.65859 9.6069C9.45428 9.4869 9.23219 9.4269 8.99234 9.4269C8.75249 9.4269 8.53041 9.4869 8.32609 9.6069C8.12178 9.7269 7.95966 9.88912 7.83973 10.0936C7.71981 10.298 7.65984 10.5202 7.65984 10.7602C7.65984 11.0002 7.71981 11.2225 7.83973 11.4269C7.95966 11.6313 8.12178 11.7936 8.32609 11.9136C8.53041 12.0336 8.75249 12.0936 8.99234 12.0936ZM8.99234 13.4269C8.51264 13.4269 8.06848 13.3069 7.65984 13.0669C7.25121 12.8269 6.92697 12.5025 6.68712 12.0936C6.44727 11.6847 6.32734 11.238 6.32734 10.7536C6.32734 10.2691 6.44727 9.82468 6.68712 9.42023C6.92697 9.01579 7.25121 8.69357 7.65984 8.45357C8.06848 8.21357 8.51264 8.09357 8.99234 8.09357C9.47204 8.09357 9.91621 8.21357 10.3248 8.45357C10.7335 8.69357 11.0577 9.01579 11.2976 9.42023C11.5374 9.82468 11.6573 10.2691 11.6573 10.7536C11.6573 11.238 11.5374 11.6847 11.2976 12.0936C11.0577 12.5025 10.7335 12.8269 10.3248 13.0669C9.91621 13.3069 9.47204 13.4269 8.99234 13.4269Z" fill="#28343D"/>
</svg>
