<svg width="23" height="40" viewBox="0 0 23 40" fill="none" xmlns="http://www.w3.org/2000/svg">
<path d="M1.77637 29.3311C1.77637 28.0395 2.10201 26.8428 2.7533 25.7408C3.38091 24.6744 4.22759 23.8272 5.29334 23.1992C6.39462 22.5475 7.59063 22.2217 8.88137 22.2217C10.1721 22.2217 11.3681 22.5475 12.4694 23.1992C13.5351 23.8272 14.3818 24.6744 15.0094 25.7408C15.6607 26.8428 15.9864 28.0395 15.9864 29.3311H14.2101C14.2101 28.3713 13.9674 27.4767 13.4819 26.6473C13.0082 25.8415 12.3687 25.2017 11.5635 24.7277C10.7346 24.2419 9.84054 23.999 8.88137 23.999C7.92219 23.999 7.02815 24.2419 6.19923 24.7277C5.394 25.2017 4.75455 25.8415 4.28088 26.6473C3.79537 27.4767 3.55262 28.3713 3.55262 29.3311H1.77637ZM8.88137 21.333C7.91035 21.333 7.0163 21.0901 6.19923 20.6043C5.394 20.1303 4.75455 19.4905 4.28088 18.6848C3.79537 17.8672 3.55262 16.9726 3.55262 16.001C3.55262 15.0294 3.79537 14.1348 4.28088 13.3172C4.75455 12.5115 5.394 11.8716 6.19923 11.3977C7.0163 10.9118 7.91035 10.6689 8.88137 10.6689C9.85238 10.6689 10.7464 10.9118 11.5635 11.3977C12.3687 11.8716 13.0082 12.5115 13.4819 13.3172C13.9674 14.1348 14.2101 15.0294 14.2101 16.001C14.2101 16.9726 13.9674 17.8672 13.4819 18.6848C13.0082 19.4905 12.3687 20.1303 11.5635 20.6043C10.7464 21.0901 9.85238 21.333 8.88137 21.333ZM8.88137 19.5557C9.52082 19.5557 10.1129 19.3957 10.6576 19.0758C11.2023 18.7559 11.6346 18.3234 11.9543 17.7783C12.274 17.2333 12.4339 16.6408 12.4339 16.001C12.4339 15.3611 12.274 14.7687 11.9543 14.2236C11.6346 13.6786 11.2023 13.2461 10.6576 12.9262C10.1129 12.6062 9.52082 12.4463 8.88137 12.4463C8.24192 12.4463 7.64983 12.6062 7.10512 12.9262C6.5604 13.2461 6.12818 13.6786 5.80845 14.2236C5.48873 14.7687 5.32887 15.3611 5.32887 16.001C5.32887 16.6408 5.48873 17.2333 5.80845 17.7783C6.12818 18.3234 6.5604 18.7559 7.10512 19.0758C7.64983 19.3957 8.24192 19.5557 8.88137 19.5557ZM16.235 22.8437C17.064 23.2111 17.7952 23.7235 18.4287 24.3812C19.0622 25.0388 19.5507 25.7823 19.8941 26.6117C20.2494 27.4767 20.427 28.3831 20.427 29.3311H18.6507C18.6507 28.2646 18.3606 27.2871 17.7804 26.3984C17.212 25.5335 16.4541 24.8877 15.5068 24.4611L16.235 22.8437ZM15.6311 12.8195C16.5311 13.1868 17.2593 13.7793 17.8159 14.5969C18.3725 15.4145 18.6507 16.3268 18.6507 17.334C18.6507 18.1753 18.4554 18.9543 18.0646 19.6712C17.6738 20.3881 17.138 20.9716 16.4571 21.4219C15.7762 21.8721 15.0272 22.1328 14.2101 22.2039V20.4088C14.7075 20.3377 15.1604 20.157 15.5689 19.8667C15.9775 19.5764 16.2972 19.2091 16.5281 18.7647C16.759 18.3204 16.8745 17.8435 16.8745 17.334C16.8745 16.7297 16.7146 16.1787 16.3949 15.6811C16.0752 15.1834 15.6548 14.8042 15.1338 14.5436L15.6311 12.8195Z" fill="#28343D"/>
</svg>
