<svg width="23" height="40" viewBox="0 0 23 40" fill="none" xmlns="http://www.w3.org/2000/svg">
<path d="M11.439 11.5576C11.6048 11.5576 11.7587 11.6021 11.9008 11.6909C12.0429 11.7798 12.1554 11.9012 12.2383 12.0553L12.8778 13.335H18.2065C18.4552 13.335 18.6654 13.4209 18.8371 13.5927C19.0088 13.7645 19.0946 13.9748 19.0946 14.2236V23.999C19.0946 24.2479 19.0088 24.4582 18.8371 24.63C18.6654 24.8018 18.4552 24.8877 18.2065 24.8877H12.5403C12.3745 24.8877 12.2206 24.8433 12.0785 24.7544C11.9364 24.6655 11.8239 24.5441 11.741 24.39L11.1015 23.1104H4.88465V28.4424H3.1084V11.5576H11.439ZM10.8884 13.335H4.88465V21.333H12.2028L13.0909 23.1104H17.3184V15.1123H11.7765L10.8884 13.335Z" fill="#28343D"/>
</svg>
