<svg width="23" height="40" viewBox="0 0 23 40" fill="none" xmlns="http://www.w3.org/2000/svg">
<path d="M11.9895 10.2246V12.9439C13.0434 13.0743 14.0174 13.4238 14.9115 13.9926C15.8055 14.5613 16.5367 15.293 17.1051 16.1876C17.6735 17.0822 18.0229 18.0568 18.1531 19.1113H20.8708V20.8887H18.1531C18.0229 21.9432 17.6735 22.9178 17.1051 23.8124C16.5367 24.707 15.8055 25.4387 14.9115 26.0074C14.0174 26.5762 13.0434 26.9257 11.9895 27.0561V29.7754H10.2133V27.0561C9.15937 26.9257 8.1854 26.5762 7.29135 26.0074C6.3973 25.4387 5.66608 24.707 5.09768 23.8124C4.52928 22.9178 4.17995 21.9432 4.04969 20.8887H1.33203V19.1113H4.04969C4.17995 18.0568 4.52928 17.0822 5.09768 16.1876C5.66608 15.293 6.3973 14.5613 7.29135 13.9926C8.1854 13.4238 9.15937 13.0743 10.2133 12.9439V10.2246H11.9895ZM11.1014 14.668C10.1422 14.668 9.24819 14.9109 8.41927 15.3967C7.61404 15.8706 6.97459 16.5105 6.50092 17.3162C6.01541 18.1456 5.77266 19.0402 5.77266 20C5.77266 20.9598 6.01541 21.8544 6.50092 22.6838C6.97459 23.4895 7.61404 24.1294 8.41927 24.6033C9.24819 25.0891 10.1422 25.332 11.1014 25.332C12.0606 25.332 12.9546 25.0891 13.7835 24.6033C14.5888 24.1294 15.2282 23.4895 15.7019 22.6838C16.1874 21.8544 16.4302 20.9598 16.4302 20C16.4302 19.0402 16.1874 18.1456 15.7019 17.3162C15.2282 16.5105 14.5888 15.8706 13.7835 15.3967C12.9546 14.9109 12.0606 14.668 11.1014 14.668ZM11.1014 18.2227C11.4211 18.2227 11.7172 18.3026 11.9895 18.4626C12.2619 18.6226 12.478 18.8388 12.6379 19.1113C12.7977 19.3839 12.8777 19.6801 12.8777 20C12.8777 20.3199 12.7977 20.6161 12.6379 20.8887C12.478 21.1612 12.2619 21.3774 11.9895 21.5374C11.7172 21.6974 11.4211 21.7773 11.1014 21.7773C10.7817 21.7773 10.4856 21.6974 10.2133 21.5374C9.94092 21.3774 9.72481 21.1612 9.56495 20.8887C9.40509 20.6161 9.32516 20.3199 9.32516 20C9.32516 19.6801 9.40509 19.3839 9.56495 19.1113C9.72481 18.8388 9.94092 18.6226 10.2133 18.4626C10.4856 18.3026 10.7817 18.2227 11.1014 18.2227Z" fill="#28343D"/>
</svg>
