<svg width="23" height="40" viewBox="0 0 23 40" fill="none" xmlns="http://www.w3.org/2000/svg">
<path d="M15.5417 23.057V29.1533C15.5417 29.2836 15.4973 29.3902 15.4085 29.4732C15.3197 29.5561 15.2161 29.5976 15.0977 29.5976C15.0148 29.5976 14.9378 29.5798 14.8667 29.5443L11.1011 27.287L7.33544 29.5443C7.22887 29.6035 7.11637 29.6183 6.99796 29.5887C6.87954 29.5591 6.79073 29.491 6.73152 29.3843C6.68415 29.3132 6.66047 29.2362 6.66047 29.1533V23.057C5.83155 22.3934 5.18618 21.5877 4.72436 20.6398C4.23885 19.6563 3.99609 18.6136 3.99609 17.5117C3.99609 16.2201 4.32174 15.0234 4.97303 13.9214C5.60064 12.8432 6.44732 11.99 7.51307 11.362C8.61434 10.7222 9.81035 10.4023 11.1011 10.4023C12.3918 10.4023 13.5878 10.7222 14.6891 11.362C15.7549 11.99 16.6015 12.8432 17.2292 13.9214C17.8804 15.0234 18.2061 16.2201 18.2061 17.5117C18.2061 18.6136 17.9633 19.6563 17.4778 20.6398C17.016 21.5877 16.3706 22.3934 15.5417 23.057ZM8.43672 24.0878V26.8072L11.1011 25.2076L13.7655 26.8072V24.0878C12.9129 24.4433 12.0247 24.621 11.1011 24.621C10.1774 24.621 9.28932 24.4492 8.43672 24.1056V24.0878ZM11.1011 22.8437C12.0603 22.8437 12.9543 22.6008 13.7832 22.115C14.5885 21.641 15.2279 21.0012 15.7016 20.1954C16.1871 19.366 16.4298 18.4685 16.4298 17.5028C16.4298 16.5371 16.1871 15.6395 15.7016 14.8101C15.2279 14.0044 14.5885 13.3704 13.7832 12.9083C12.9543 12.4225 12.0603 12.1796 11.1011 12.1796C10.1419 12.1796 9.24787 12.4225 8.41896 12.9083C7.61372 13.3704 6.97427 14.0044 6.50061 14.8101C6.0151 15.6395 5.77234 16.5371 5.77234 17.5028C5.77234 18.4685 6.0151 19.366 6.50061 20.1954C6.97427 21.0012 7.61372 21.641 8.41896 22.115C9.24787 22.6008 10.1419 22.8437 11.1011 22.8437Z" fill="#28343D"/>
</svg>
