<svg width="15" height="20" viewBox="0 0 15 20" fill="none" xmlns="http://www.w3.org/2000/svg">
<path d="M12.5373 7.66671V15.25C12.5373 15.4134 12.4809 15.5514 12.3682 15.6642C12.2554 15.777 12.1174 15.8334 11.9541 15.8334H2.62414C2.46087 15.8334 2.32286 15.777 2.21012 15.6642C2.09738 15.5514 2.04102 15.4134 2.04102 15.25V4.75004C2.04102 4.58671 2.09738 4.44865 2.21012 4.33587C2.32286 4.2231 2.46087 4.16671 2.62414 4.16671H9.03852L12.5373 7.66671ZM11.371 8.25004H8.45539V5.33337H3.20727V14.6667H11.371V8.25004ZM4.95664 7.08337H6.70602V8.25004H4.95664V7.08337ZM4.95664 9.41671H9.62164V10.5834H4.95664V9.41671ZM4.95664 11.75H9.62164V12.9167H4.95664V11.75Z" fill="#6B7280"/>
</svg>
