<svg width="18" height="24" viewBox="0 0 18 24" fill="none" xmlns="http://www.w3.org/2000/svg">
<path d="M7.23344 11.12C7.54436 11.6711 7.92412 12.1711 8.37273 12.62C8.82134 13.0689 9.32103 13.4489 9.87179 13.76L10.4581 12.9333C10.5558 12.7911 10.6868 12.7022 10.8512 12.6667C11.0155 12.6311 11.1732 12.6533 11.3242 12.7333C12.2747 13.2578 13.2919 13.56 14.3756 13.64C14.5444 13.6578 14.6888 13.7289 14.8087 13.8533C14.9286 13.9778 14.9886 14.1289 14.9886 14.3067V17.28C14.9886 17.4489 14.9309 17.5978 14.8154 17.7267C14.6999 17.8556 14.5578 17.9289 14.389 17.9467C14.0336 17.9822 13.6783 18 13.323 18C11.9194 18 10.578 17.7289 9.29882 17.1867C8.06404 16.6622 6.97139 15.9244 6.02087 14.9733C5.07035 14.0222 4.33304 12.9289 3.80892 11.6933C3.26704 10.4133 2.99609 9.07111 2.99609 7.66667C2.99609 7.31111 3.01386 6.95555 3.04939 6.6C3.06716 6.43111 3.14045 6.28889 3.26926 6.17333C3.39806 6.05778 3.54686 6 3.71564 6H6.68712C6.86479 6 7.0158 6.06 7.14017 6.18C7.26454 6.3 7.3356 6.44444 7.35337 6.61333C7.43332 7.69778 7.73535 8.71556 8.25947 9.66667C8.33942 9.81778 8.36163 9.97556 8.32609 10.14C8.29056 10.3044 8.20173 10.4356 8.05959 10.5333L7.23344 11.12ZM5.55449 10.68L6.82037 9.77333C6.46504 9 6.22074 8.18667 6.08749 7.33333H4.32859V7.66667C4.32859 8.88444 4.564 10.0533 5.03482 11.1733C5.48787 12.2489 6.12969 13.2022 6.96028 14.0333C7.79087 14.8644 8.74361 15.5067 9.81849 15.96C10.9378 16.4311 12.106 16.6667 13.323 16.6667H13.6561V14.9067C12.8033 14.7733 11.9905 14.5289 11.2176 14.1733L10.3115 15.44C9.9473 15.2978 9.59197 15.1289 9.24552 14.9333L9.20554 14.92C8.55706 14.5467 7.96632 14.0933 7.43332 13.56C6.90032 13.0267 6.44727 12.4356 6.07417 11.7867L6.06084 11.7467C5.86541 11.4 5.69663 11.0444 5.55449 10.68Z" fill="#28343D"/>
</svg>
