<svg width="35" height="40" viewBox="0 0 35 40" fill="none" xmlns="http://www.w3.org/2000/svg">
<path d="M17 10.2246L24.3003 11.842C24.5017 11.8894 24.6674 11.996 24.7977 12.1619C24.928 12.3278 24.9931 12.5115 24.9931 12.7129V21.5818C24.9931 22.4824 24.7829 23.3236 24.3625 24.1057C23.9421 24.8877 23.3589 25.5275 22.6129 26.0252L17 29.7754L11.387 26.0252C10.641 25.5275 10.0578 24.8877 9.6374 24.1057C9.21703 23.3236 9.00684 22.4824 9.00684 21.5818V12.7129C9.00684 12.5115 9.07197 12.3278 9.20222 12.1619C9.33248 11.996 9.49827 11.8894 9.69957 11.842L17 10.2246ZM17 12.0375L10.7831 13.4238V21.5818C10.7831 22.1861 10.9222 22.749 11.2005 23.2703C11.4788 23.7917 11.8666 24.2182 12.3639 24.55L17 27.6426L21.636 24.55C22.1333 24.2182 22.5211 23.7917 22.7994 23.2703C23.0777 22.749 23.2168 22.1861 23.2168 21.5818V13.4238L17 12.0375ZM20.961 16.6408L22.2044 17.9027L16.5559 23.5547L12.7902 19.7867L14.0514 18.5248L16.5559 21.0486L20.961 16.6408Z" fill="#28343D"/>
</svg>
