<svg width="18" height="25" viewBox="0 0 18 25" fill="none" xmlns="http://www.w3.org/2000/svg">
<path d="M12.9093 15.0202L15.7609 17.8735L14.8148 18.8202L11.9632 15.9669C11.4391 16.3846 10.8661 16.7046 10.2443 16.9269C9.58694 17.158 8.91181 17.2735 8.21891 17.2735C7.13514 17.2735 6.12688 17.0024 5.19413 16.4602C4.28803 15.9269 3.57292 15.2069 3.04881 14.3002C2.49804 13.3669 2.22266 12.358 2.22266 11.2735C2.22266 10.1891 2.49804 9.18019 3.04881 8.24686C3.57292 7.34019 4.28803 6.62463 5.19413 6.10019C6.12688 5.54908 7.13514 5.27352 8.21891 5.27352C9.30267 5.27352 10.3109 5.54908 11.2437 6.10019C12.1498 6.62463 12.8693 7.34019 13.4023 8.24686C13.9442 9.18019 14.2152 10.1891 14.2152 11.2735C14.2152 11.9669 14.0997 12.6424 13.8687 13.3002C13.6466 13.9224 13.3268 14.4957 12.9093 15.0202ZM11.5635 14.5269C11.981 14.1002 12.3052 13.6113 12.5362 13.0602C12.7672 12.4913 12.8827 11.8957 12.8827 11.2735C12.8827 10.4291 12.6695 9.64241 12.2431 8.91352C11.8344 8.2113 11.2792 7.65575 10.5774 7.24686C9.849 6.82019 9.06282 6.60686 8.21891 6.60686C7.37499 6.60686 6.58881 6.82019 5.86038 7.24686C5.1586 7.65575 4.60339 8.2113 4.19476 8.91352C3.76836 9.64241 3.55516 10.4291 3.55516 11.2735C3.55516 12.118 3.76836 12.9046 4.19476 13.6335C4.60339 14.3357 5.1586 14.8913 5.86038 15.3002C6.58881 15.7269 7.37499 15.9402 8.21891 15.9402C8.84074 15.9402 9.43592 15.8246 10.0045 15.5935C10.5552 15.3624 11.0438 15.038 11.4702 14.6202L11.5635 14.5269Z" fill="#9CA3AF"/>
</svg>
