<svg width="41" height="40" viewBox="0 0 41 40" fill="none" xmlns="http://www.w3.org/2000/svg">
<path d="M20.3832 19.1113C21.1884 19.1113 21.9315 19.3098 22.6124 19.7067C23.2933 20.1037 23.8321 20.6428 24.2288 21.3241C24.6255 22.0054 24.8238 22.749 24.8238 23.5547V28.8867H23.0476V23.5547C23.0476 23.0926 22.9351 22.6631 22.7101 22.2661C22.4851 21.8692 22.1831 21.5493 21.8042 21.3063C21.4253 21.0634 21.0049 20.9242 20.5431 20.8887H20.3832C19.9214 20.8887 19.4921 21.0012 19.0954 21.2264C18.6987 21.4515 18.379 21.7536 18.1362 22.1328C17.8935 22.512 17.7544 22.9326 17.7188 23.3947V28.8867H15.9426V23.5547C15.9426 22.749 16.1409 22.0054 16.5376 21.3241C16.9343 20.6428 17.4731 20.1037 18.154 19.7067C18.8349 19.3098 19.578 19.1113 20.3832 19.1113ZM14.6104 21.7773C14.8591 21.7773 15.1018 21.807 15.3387 21.8662C15.1847 22.3165 15.09 22.7786 15.0545 23.2525V23.6258C14.9479 23.5902 14.8413 23.5665 14.7347 23.5547H14.6104C14.267 23.5547 13.968 23.6702 13.7134 23.9013C13.4588 24.1323 13.3137 24.4197 13.2782 24.7633V24.8877V28.8867H11.502V24.8877C11.502 24.3189 11.6411 23.7976 11.9194 23.3236C12.1977 22.8497 12.5736 22.4735 13.0473 22.195C13.521 21.9166 14.042 21.7773 14.6104 21.7773ZM26.156 21.7773C26.7244 21.7773 27.2455 21.9166 27.7191 22.195C28.1928 22.4735 28.5688 22.8497 28.847 23.3236C29.1253 23.7976 29.2645 24.3189 29.2645 24.8877V28.8867H27.4882V24.8877C27.4882 24.5441 27.3727 24.2449 27.1418 23.9901C26.9109 23.7354 26.6238 23.5902 26.2804 23.5547H26.156C26.0021 23.5547 25.8541 23.5784 25.712 23.6258V23.5547C25.712 22.9741 25.6231 22.4113 25.4455 21.8662C25.6705 21.807 25.9073 21.7773 26.156 21.7773ZM14.6104 16.4453C15.013 16.4453 15.3831 16.546 15.7205 16.7475C16.058 16.9489 16.3274 17.2185 16.5287 17.5562C16.73 17.8938 16.8307 18.2641 16.8307 18.667C16.8307 19.0699 16.73 19.4401 16.5287 19.7778C16.3274 20.1155 16.058 20.3851 15.7205 20.5865C15.3831 20.788 15.013 20.8887 14.6104 20.8887C14.2078 20.8887 13.8377 20.788 13.5002 20.5865C13.1627 20.3851 12.8933 20.1155 12.692 19.7778C12.4907 19.4401 12.3901 19.0699 12.3901 18.667C12.3901 18.2641 12.4907 17.8938 12.692 17.5562C12.8933 17.2185 13.1627 16.9489 13.5002 16.7475C13.8377 16.546 14.2078 16.4453 14.6104 16.4453ZM26.156 16.4453C26.5586 16.4453 26.9287 16.546 27.2662 16.7475C27.6037 16.9489 27.8731 17.2185 28.0744 17.5562C28.2757 17.8938 28.3763 18.2641 28.3763 18.667C28.3763 19.0699 28.2757 19.4401 28.0744 19.7778C27.8731 20.1155 27.6037 20.3851 27.2662 20.5865C26.9287 20.788 26.5586 20.8887 26.156 20.8887C25.7534 20.8887 25.3833 20.788 25.0459 20.5865C24.7084 20.3851 24.439 20.1155 24.2377 19.7778C24.0364 19.4401 23.9357 19.0699 23.9357 18.667C23.9357 18.2641 24.0364 17.8938 24.2377 17.5562C24.439 17.2185 24.7084 16.9489 25.0459 16.7475C25.3833 16.546 25.7534 16.4453 26.156 16.4453ZM14.6104 18.2227C14.492 18.2227 14.3884 18.2671 14.2995 18.356C14.2107 18.4448 14.1663 18.5485 14.1663 18.667C14.1663 18.7855 14.2107 18.8892 14.2995 18.978C14.3884 19.0669 14.492 19.1113 14.6104 19.1113C14.7288 19.1113 14.8324 19.0669 14.9212 18.978C15.01 18.8892 15.0545 18.7855 15.0545 18.667C15.0545 18.5485 15.01 18.4448 14.9212 18.356C14.8324 18.2671 14.7288 18.2227 14.6104 18.2227ZM26.156 18.2227C26.0376 18.2227 25.934 18.2671 25.8452 18.356C25.7564 18.4448 25.712 18.5485 25.712 18.667C25.712 18.7855 25.7564 18.8892 25.8452 18.978C25.934 19.0669 26.0376 19.1113 26.156 19.1113C26.2744 19.1113 26.378 19.0669 26.4669 18.978C26.5557 18.8892 26.6001 18.7855 26.6001 18.667C26.6001 18.5485 26.5557 18.4448 26.4669 18.356C26.378 18.2671 26.2744 18.2227 26.156 18.2227ZM20.3832 11.1133C21.0227 11.1133 21.6147 11.2732 22.1595 11.5932C22.7042 11.9131 23.1364 12.3456 23.4561 12.8906C23.7758 13.4357 23.9357 14.0281 23.9357 14.668C23.9357 15.3078 23.7758 15.9003 23.4561 16.4453C23.1364 16.9904 22.7042 17.4229 22.1595 17.7428C21.6147 18.0627 21.0227 18.2227 20.3832 18.2227C19.7438 18.2227 19.1517 18.0627 18.607 17.7428C18.0622 17.4229 17.63 16.9904 17.3103 16.4453C16.9906 15.9003 16.8307 15.3078 16.8307 14.668C16.8307 14.0281 16.9906 13.4357 17.3103 12.8906C17.63 12.3456 18.0622 11.9131 18.607 11.5932C19.1517 11.2732 19.7438 11.1133 20.3832 11.1133ZM20.3832 12.8906C20.0635 12.8906 19.7674 12.9706 19.4951 13.1306C19.2227 13.2905 19.0066 13.5068 18.8467 13.7793C18.6869 14.0518 18.607 14.348 18.607 14.668C18.607 14.9879 18.6869 15.2841 18.8467 15.5566C19.0066 15.8292 19.2227 16.0454 19.4951 16.2054C19.7674 16.3653 20.0635 16.4453 20.3832 16.4453C20.7029 16.4453 20.999 16.3653 21.2713 16.2054C21.5437 16.0454 21.7598 15.8292 21.9197 15.5566C22.0795 15.2841 22.1595 14.9879 22.1595 14.668C22.1595 14.348 22.0795 14.0518 21.9197 13.7793C21.7598 13.5068 21.5437 13.2905 21.2713 13.1306C20.999 12.9706 20.7029 12.8906 20.3832 12.8906Z" fill="#28343D"/>
</svg>
