<svg width="41" height="40" viewBox="0 0 41 40" fill="none" xmlns="http://www.w3.org/2000/svg">
<path d="M27.6026 19.6445L28.9525 22.0084C29.2367 22.4942 29.3759 23.0126 29.3699 23.5636C29.364 24.1146 29.2249 24.63 28.9525 25.1099C28.6802 25.5897 28.3042 25.9689 27.8246 26.2474C27.345 26.5258 26.8269 26.665 26.2704 26.665H24.4408V28.8867L20.0002 25.7764L24.4408 22.666V24.8877H26.2704C26.5072 24.8877 26.7263 24.8285 26.9276 24.71C27.2473 24.5204 27.4545 24.2479 27.5493 23.8924C27.644 23.5369 27.6026 23.2051 27.4249 22.8971L26.0572 20.5332L27.6026 19.6445ZM16.7142 17.0141L17.176 22.4172L15.2576 21.2975L14.3517 22.8971C14.2333 23.0985 14.1741 23.3177 14.1741 23.5547C14.1741 23.922 14.3014 24.236 14.556 24.4967C14.8106 24.7574 15.1274 24.8877 15.5063 24.8877H18.224V26.665H15.5063C14.9379 26.665 14.4169 26.5258 13.9432 26.2474C13.4695 25.9689 13.0936 25.5927 12.8153 25.1187C12.537 24.6448 12.3979 24.1264 12.3979 23.5636C12.3979 23.0007 12.534 22.4824 12.8064 22.0084L13.7123 20.4088L11.7939 19.3068L16.7142 17.0141ZM22.4337 11.5221C22.9192 11.8064 23.2981 12.1915 23.5705 12.6773L24.4941 14.2592L26.4125 13.1395L25.9329 18.5426L21.0304 16.2498L22.9488 15.1479L22.0429 13.566C21.9245 13.3527 21.7587 13.1868 21.5456 13.0684C21.2258 12.8906 20.8883 12.8492 20.5331 12.9439C20.1778 13.0387 19.9114 13.2461 19.7338 13.566L18.3661 15.9121L16.8207 15.0234L18.1884 12.6773C18.4726 12.1797 18.8545 11.7946 19.3341 11.5221C19.8137 11.2495 20.3288 11.1133 20.8795 11.1133C21.4301 11.1133 21.9482 11.2495 22.4337 11.5221Z" fill="#28343D"/>
</svg>
