<svg width="18" height="24" viewBox="0 0 18 24" fill="none" xmlns="http://www.w3.org/2000/svg">
<path d="M5.69662 5.66658C6.20297 5.66658 6.67379 5.79325 7.10907 6.04659C7.54436 6.29992 7.88859 6.64436 8.14176 7.07992C8.39494 7.51547 8.52152 7.98658 8.52152 8.49325V11.3333H5.69662C5.18139 11.3333 4.70613 11.2066 4.27085 10.9533C3.83557 10.6999 3.49134 10.3555 3.23816 9.91992C2.98499 9.48436 2.8584 9.01103 2.8584 8.49992C2.8584 7.98881 2.98499 7.51547 3.23816 7.07992C3.49134 6.64436 3.83557 6.29992 4.27085 6.04659C4.70613 5.79325 5.17695 5.66658 5.6833 5.66658H5.69662ZM7.18902 9.99992V8.49325C7.18902 8.22659 7.1224 7.9777 6.98915 7.74658C6.8559 7.51547 6.67379 7.33325 6.44282 7.19992C6.21186 7.06658 5.9609 6.99992 5.68996 6.99992C5.41902 6.99992 5.16807 7.06658 4.9371 7.19992C4.70613 7.33325 4.52402 7.51547 4.39077 7.74658C4.25752 7.9777 4.1909 8.22881 4.1909 8.49992C4.1909 8.77103 4.25752 9.02214 4.39077 9.25325C4.52402 9.48436 4.70613 9.66658 4.9371 9.79992C5.16807 9.93325 5.4168 9.99992 5.6833 9.99992H7.18902ZM5.69662 12.6666H8.52152V15.4933C8.52152 16.0088 8.39494 16.4844 8.14176 16.9199C7.88859 17.3555 7.54436 17.6999 7.10907 17.9533C6.67379 18.2066 6.20075 18.3333 5.68996 18.3333C5.17917 18.3333 4.70613 18.2066 4.27085 17.9533C3.83557 17.6999 3.49134 17.3555 3.23816 16.9199C2.98499 16.4844 2.8584 16.011 2.8584 15.4999C2.8584 14.9888 2.98499 14.5155 3.23816 14.0799C3.49134 13.6444 3.83557 13.2999 4.27085 13.0466C4.70613 12.7933 5.17695 12.6666 5.6833 12.6666H5.69662ZM5.69662 13.9999C5.42124 13.9999 5.16807 14.0666 4.9371 14.1999C4.70613 14.3333 4.52402 14.5155 4.39077 14.7466C4.25752 14.9777 4.1909 15.2288 4.1909 15.4999C4.1909 15.771 4.25752 16.0221 4.39077 16.2533C4.52402 16.4844 4.70613 16.6666 4.9371 16.7999C5.16807 16.9333 5.41902 16.9999 5.68996 16.9999C5.9609 16.9999 6.21186 16.9333 6.44282 16.7999C6.67379 16.6666 6.8559 16.4844 6.98915 16.2533C7.1224 16.0221 7.18902 15.7688 7.18902 15.4933V13.9999H5.69662ZM12.6922 5.66658C13.1986 5.66658 13.6694 5.79325 14.1047 6.04659C14.54 6.29992 14.8842 6.64436 15.1374 7.07992C15.3906 7.51547 15.5171 7.98881 15.5171 8.49992C15.5171 9.01103 15.3906 9.48436 15.1374 9.91992C14.8842 10.3555 14.54 10.6999 14.1047 10.9533C13.6694 11.2066 13.1942 11.3333 12.6789 11.3333H9.85402V8.49325C9.85402 7.98658 9.98061 7.51547 10.2338 7.07992C10.487 6.64436 10.8312 6.29992 11.2665 6.04659C11.7018 5.79325 12.177 5.66658 12.6922 5.66658ZM12.6922 9.99992C12.9587 9.99992 13.2075 9.93325 13.4384 9.79992C13.6694 9.66658 13.8515 9.48436 13.9848 9.25325C14.118 9.02214 14.1846 8.77103 14.1846 8.49992C14.1846 8.22881 14.118 7.9777 13.9848 7.74658C13.8515 7.51547 13.6694 7.33325 13.4384 7.19992C13.2075 7.06658 12.9565 6.99992 12.6856 6.99992C12.4146 6.99992 12.1637 7.06658 11.9327 7.19992C11.7018 7.33325 11.5196 7.51547 11.3864 7.74658C11.2531 7.9777 11.1865 8.22659 11.1865 8.49325V9.99992H12.6922ZM9.85402 12.6666H12.6922C13.1986 12.6666 13.6694 12.7933 14.1047 13.0466C14.54 13.2999 14.8842 13.6444 15.1374 14.0799C15.3906 14.5155 15.5171 14.9888 15.5171 15.4999C15.5171 16.011 15.3906 16.4844 15.1374 16.9199C14.8842 17.3555 14.54 17.6999 14.1047 17.9533C13.6694 18.2066 13.1964 18.3333 12.6856 18.3333C12.1748 18.3333 11.7018 18.2066 11.2665 17.9533C10.8312 17.6999 10.487 17.3555 10.2338 16.9199C9.98061 16.4844 9.85402 16.0088 9.85402 15.4933V12.6666ZM11.1865 13.9999V15.4933C11.1865 15.7688 11.2531 16.0221 11.3864 16.2533C11.5196 16.4844 11.7018 16.6666 11.9327 16.7999C12.1637 16.9333 12.4146 16.9999 12.6856 16.9999C12.9565 16.9999 13.2075 16.9333 13.4384 16.7999C13.6694 16.6666 13.8515 16.4844 13.9848 16.2533C14.118 16.0221 14.1846 15.771 14.1846 15.4999C14.1846 15.2288 14.118 14.9777 13.9848 14.7466C13.8515 14.5155 13.6694 14.3333 13.4384 14.1999C13.2075 14.0666 12.9587 13.9999 12.6922 13.9999H11.1865Z" fill="#28343D"/>
</svg>
